<svg xmlns="http://www.w3.org/2000/svg" xmlns:xlink="http://www.w3.org/1999/xlink" viewBox="0 0 512 512"><defs><style>.cls-1{fill:#fffcd4;}.cls-2{fill:#d14d19;}.cls-3{fill:#e77c2a;}.cls-4{fill:#e67624;}.cls-5{fill:#e25e0e;}.cls-6{fill:#e15808;}.cls-7{fill:#e5701f;}.cls-8{fill:#e46a19;}.cls-9{fill:#ffaf68;}.cls-10{fill:#ffb979;}.cls-11{fill:#ffc389;}.cls-12{fill:#ffdec2;}.cls-13{fill:#ff9136;}.cls-14{fill:#ffa557;}.cls-15{fill:#ff9b47;}.cls-16{fill:#8fcc76;}.cls-17{fill:#6faf58;}.cls-18{fill:#236e09;}.cls-19{fill:#2e7c11;}.cls-20{fill:#379311;}.cls-21{fill:#1a5103;}.cls-22{fill:#206307;}.cls-23{fill:#30890b;}.cls-24{fill:#247f03;}.cls-25{fill:#1f6300;}.cls-26{fill:#217000;}.cls-27{fill:#2e8c07;}.cls-28{fill:#2a7f03;}.cls-29{fill:#fec901;}.cls-30{fill:#f7aa00;}.cls-31{fill:#fed501;}.cls-32{fill:#fcbb03;}.cls-33{fill:#649d32;}.cls-34{fill:#508419;}.cls-35{fill:#73b72a;}.cls-36{fill:#fde000;}.cls-37{fill:#fcd200;}.cls-38{fill:#94af20;}.cls-39{fill:#abc820;}.cls-40{fill:#def05e;}.cls-41{fill:#accf1b;}.cls-42{fill:#f93;}.cls-43{fill:#ff6903;}.cls-44{fill:#ffd7b3;}.cls-45{fill:#f78721;}.cls-46{fill:#7e9b46;}.cls-47{fill:#a5c45b;}.cls-48{fill:#74733d;}.cls-49{fill:#ff521d;}.cls-50{fill:#ff3a1a;}.cls-51{fill:#f8784b;}.cls-52{fill:url(#linear-gradient);}.cls-53{fill:#e23129;}.cls-54{fill:#ffd6a9;}.cls-55{fill:#dbba94;}.cls-56,.cls-57{font-size:228.32px;font-family:MyriadPro-Regular, Myriad Pro;}.cls-56{fill:#385449;}.cls-57{fill:#248e68;}</style><linearGradient id="linear-gradient" x1="359.74" y1="278.36" x2="284.12" y2="250.75" gradientTransform="matrix(2.41, 0.51, 0.51, 1.18, -555.8, -201.15)" gradientUnits="userSpaceOnUse"><stop offset="0" stop-opacity="0"/><stop offset="0.02" stop-color="#100603" stop-opacity="0.04"/><stop offset="0.11" stop-color="#471a0b" stop-opacity="0.17"/><stop offset="0.21" stop-color="#712912" stop-opacity="0.28"/><stop offset="0.33" stop-color="#8e3417" stop-opacity="0.35"/><stop offset="0.51" stop-color="#9f3a19" stop-opacity="0.39"/><stop offset="1" stop-color="#a43c1a" stop-opacity="0.4"/></linearGradient></defs><title>Grocery_Shopping</title><g id="Layer_2" data-name="Layer 2"><g id="Layer_1-2" data-name="Layer 1"><rect class="cls-1" width="512" height="512" rx="158.97" ry="158.97"/><path class="cls-2" d="M502.08,254.2a32.18,32.18,0,0,1-32,32.31H41.58a32.17,32.17,0,0,1-32-32.31V231.42a32.18,32.18,0,0,1,32-32.32H470a32.18,32.18,0,0,1,32,32.32Z"/><path class="cls-3" d="M256.6,435.77c5.95-12.66,6.47-20.18,6.52-25.8.05-6.61,5.95-20.65,5.95-20.65l.08-1.08s-6.61,14.82-7.91,20.83c-1.11,5.11-2.86,12-8.81,24.7-5.2,11.06-10.77,19.57-12.35,18.81l1.32.63C244.55,454.72,251.4,446.82,256.6,435.77Z"/><path class="cls-4" d="M260.78,437.76c6-12.65,5.23-20.76,4.22-26.89-1.19-7.2,4.85-22.3,4.85-22.3l-.78.75s-5.9,14-5.95,20.65c-.05,5.62-.57,13.14-6.52,25.8-5.2,11.05-12.05,19-15.2,17.44l1.31.63C247.45,456.11,255.58,448.82,260.78,437.76Z"/><path class="cls-3" d="M252.43,433.77c5.95-12.66,7.7-19.59,8.81-24.7,1.3-6,7.91-20.83,7.91-20.83l-.77.75-9,19.18-11.09,23.6L238.76,452l1.32.63C241.66,453.34,247.23,444.83,252.43,433.77Z"/><path class="cls-5" d="M273.29,443.76c5.95-12.66,1.53-22.54-2.65-30.19-4.92-9-.18-23.58-.18-23.58l.08-1.08s-5.46,15.37-1.78,23.76c3.12,7.14,6.31,16.43.36,29.09-5.2,11.06-15.89,17.12-23.78,13.34l1.32.63C256.13,460.26,268.1,454.81,273.29,443.76Z"/><path class="cls-6" d="M272.52,414.47c-6.16-9.58-1.28-25.23-1.28-25.23l-.78.75s-4.74,14.59.18,23.58c4.18,7.65,8.6,17.53,2.65,30.19-5.19,11.05-17.16,16.5-26.63,12l1.31.63a22.12,22.12,0,0,0,29.5-10.61C283.42,433.1,277.76,422.62,272.52,414.47Z"/><path class="cls-7" d="M265,439.76c5.95-12.66,4-21.36,1.93-28-2.43-7.8,2.89-22.12,2.89-22.12l.08-1.08s-6,15.1-4.85,22.3c1,6.13,1.73,14.24-4.22,26.89-5.2,11.06-13.33,18.35-18.07,16.08l1.32.63C250.34,457.49,259.75,450.82,265,439.76Z"/><path class="cls-8" d="M269.12,441.76c5.95-12.66,2.76-21.95-.36-29.09-3.68-8.39,1.78-23.76,1.78-23.76l-.77.74s-5.32,14.32-2.89,22.12c2.06,6.63,4,15.33-1.93,28-5.2,11.06-14.61,17.73-20.92,14.71l1.31.63C253.23,458.88,263.92,452.82,269.12,441.76Z"/><path class="cls-9" d="M235.74,425.78c5.95-12.66,12.63-17.23,18-20.31,6.28-3.63,14-17.89,14-17.89l-.77.74s-7.63,13.21-15.16,16.25c-6.4,2.58-14.31,6.55-20.27,19.21-5.2,11.06-4.37,22.63,1.94,25.65l1.32.63C230.08,447.8,230.54,436.83,235.74,425.78Z"/><path class="cls-10" d="M231.56,423.78c6-12.66,13.87-16.63,20.27-19.21,7.53-3,15.16-16.25,15.16-16.25l.08-1.08s-8.35,14-17.12,16.43c-7.46,2.07-16.61,5.46-22.56,18.11-5.2,11.06-3.09,23.25,4.8,27l1.31.62C227.19,446.41,226.36,434.84,231.56,423.78Z"/><path class="cls-11" d="M223.22,419.78c5.95-12.65,16.34-15.45,24.85-17,10-1.84,18.22-14.78,18.22-14.78l.08-1.08s-8.92,13.71-20.18,15c-9.57,1.06-21.19,3.26-27.15,15.92a22.5,22.5,0,0,0,10.52,29.76l1.31.63C221.4,443.64,218,430.84,223.22,419.78Z"/><path class="cls-11" d="M227.39,421.78c6-12.65,15.1-16,22.56-18.11,8.77-2.44,17.12-16.43,17.12-16.43l-.78.75s-8.21,12.94-18.22,14.78c-8.51,1.56-18.9,4.36-24.85,17-5.2,11.06-1.82,23.86,7.65,28.4l1.32.63C224.3,445,222.19,432.84,227.39,421.78Z"/><path class="cls-12" d="M230.9,421.18c4.81-10.22,11.21-13.43,16.37-15.51q9.12-3.69-3-1.46c-6.88,1.27-15.27,3.52-20.08,13.75C220,426.89,226.7,430.12,230.9,421.18Z"/><path class="cls-13" d="M259.35,408.17l9-19.18.08-1.08s-7.19,14.54-11,19.36c-3.22,4.1-7.44,9.85-13.39,22.5-5.2,11.06-8.21,20.8-6.63,21.55l1.31.63,9.5-20.18Z"/><path class="cls-14" d="M239.91,427.78c6-12.66,11.4-17.82,15.68-21.41,5-4.23,12.09-17.72,12.09-17.72l.08-1.07s-7.77,14.26-14,17.89c-5.34,3.08-12,7.65-18,20.31-5.2,11.05-5.66,22-.92,24.28l1.31.63C233,449.18,234.71,438.83,239.91,427.78Z"/><path class="cls-15" d="M244.08,429.77c5.95-12.65,10.17-18.4,13.39-22.5,3.8-4.82,11-19.36,11-19.36l-.78.74s-7.05,13.49-12.09,17.72c-4.28,3.59-9.73,8.75-15.68,21.41-5.2,11.05-6.93,21.4-3.78,22.91l1.32.63C235.87,450.57,238.88,440.83,244.08,429.77Z"/><path class="cls-16" d="M120.78,439.09,103.19,456l12.22-19.37-5.32-7.74-5.23,15.15,1.93-18.7-5.28-10.71s4.38,30.52-8.09,47.55a67,67,0,0,1-15.37,15.22l7.37,7.51L126.64,443Z"/><path class="cls-17" d="M127.87,467l8.59-7.57-2.39-2.65-21.59,10.83L132,451.13,127.89,444l-7.46,6.89,7.17-7.2-1-.64L85.42,484.94l6.91,7a67.53,67.53,0,0,1,15.44-14.32c17.41-11.72,47.12-5.58,47.12-5.58l-10.22-5.95Z"/><path class="cls-18" d="M122.54,447.18l.51,0c0-.19,0-.38,0-.58Z"/><path class="cls-18" d="M127.28,435.65a21.39,21.39,0,0,1-10.23-5.82,21.92,21.92,0,0,1-5-7.84,21.55,21.55,0,0,1-9.32-4.63,22.31,22.31,0,0,0,4.93,23.39,21.35,21.35,0,0,0,14.83,6.43l.55-.56A22,22,0,0,1,127.28,435.65Z"/><path class="cls-19" d="M101.36,384.88a22.3,22.3,0,0,0,0,31.16c.46.47.94.9,1.42,1.32A21.55,21.55,0,0,0,112.1,422a22.45,22.45,0,0,1,.15-15.92,22,22,0,0,1,4.8-7.4c.33-.34.67-.63,1-.94a22.07,22.07,0,0,1,6.23-13.39,21.39,21.39,0,0,1,3.4-2.82A21.36,21.36,0,0,0,101.36,384.88Z"/><path class="cls-20" d="M154.94,384.34a21.45,21.45,0,0,0-30.64,0,22.07,22.07,0,0,0-6.23,13.39,21.34,21.34,0,0,1,25.82-2.13,21.37,21.37,0,0,1,14.74-6.22A22,22,0,0,0,154.94,384.34Z"/><path class="cls-18" d="M127.28,435.65a22,22,0,0,0-4.19,11l9.39-9.55c0-.26,0-.52,0-.78A21.88,21.88,0,0,1,127.28,435.65Z"/><path class="cls-21" d="M165.76,453.61a22,22,0,0,1-5.8,10.76,21.51,21.51,0,0,1-7.64,5c.41.5.83,1,1.29,1.45a21.4,21.4,0,0,0,30.64,0,22.32,22.32,0,0,0,3.3-26.8,22.08,22.08,0,0,1-2.78,3.46A21.4,21.4,0,0,1,165.76,453.61Z"/><path class="cls-22" d="M165.5,453.57a21.43,21.43,0,0,1-26.79-3.1,21.76,21.76,0,0,1-4.4-6.51,22.26,22.26,0,0,1-1.83-6.89l-9.39,9.55c0,.2,0,.39,0,.58a22.23,22.23,0,0,0,6.27,17.17,21.46,21.46,0,0,0,30.64,0,22,22,0,0,0,5.8-10.76Z"/><path class="cls-23" d="M136.94,392.72a21.36,21.36,0,0,0-18.87,5c-.35.31-.69.6-1,.94a22,22,0,0,0-4.8,7.4A22.45,22.45,0,0,0,112.1,422a21.92,21.92,0,0,0,5,7.84,21.39,21.39,0,0,0,10.23,5.82,21.88,21.88,0,0,0,5.15.64,22.44,22.44,0,0,1,.14-4.26c.08-.58.17-1.16.29-1.73a22,22,0,0,1,3.82-8.56,21.25,21.25,0,0,1,2-2.43l0,0a22.4,22.4,0,0,1,1.33-18.62,21.75,21.75,0,0,1,3.58-4.83c.07-.08.15-.14.23-.22A21.27,21.27,0,0,0,136.94,392.72Z"/><path class="cls-24" d="M132.43,436.29c0,.26,0,.52,0,.78l.81-.83Z"/><path class="cls-24" d="M142.51,426.86c.33,0,.66,0,1-.06-.16-.16-.29-.33-.44-.49Z"/><path class="cls-24" d="M140,422a24.72,24.72,0,0,1-1.21-2.68l0,0a21.25,21.25,0,0,0-2,2.43,22,22,0,0,0-3.82,8.56c-.12.57-.21,1.15-.29,1.73a22.44,22.44,0,0,0-.14,4.26l.86-.05,1.44-1.46,7.78-7.92.55-.55A22.07,22.07,0,0,1,140,422Z"/><path class="cls-25" d="M184.77,416.32a21.6,21.6,0,0,0-4.21-3.31,22.05,22.05,0,0,1-6.27,14l0,0a22.13,22.13,0,0,1-8.43,26.36l-.06.23a21.4,21.4,0,0,0,19-6.12,22.08,22.08,0,0,0,2.78-3.46A22.34,22.34,0,0,0,184.77,416.32Z"/><path class="cls-24" d="M165.76,453.61l.06-.23c-.11.07-.22.12-.32.19Z"/><path class="cls-26" d="M174.25,427a21.51,21.51,0,0,1-4.71,3.6,21.39,21.39,0,0,1-21.67-.32l-.42-.25a22.34,22.34,0,0,1-2.93-2.27c-.29-.27-.59-.51-.86-.8a1.37,1.37,0,0,1-.16-.18c-.33,0-.66,0-1,.06l-7.78,7.92-1.44,1.46-.81.83a22.26,22.26,0,0,0,1.83,6.89,21.76,21.76,0,0,0,4.4,6.51,21.43,21.43,0,0,0,26.79,3.1c.1-.07.21-.12.32-.19a21.91,21.91,0,0,0,3.53-2.91,22.37,22.37,0,0,0,4.9-23.45Z"/><path class="cls-27" d="M158.63,389.38a21.37,21.37,0,0,0-14.74,6.22c-.08.08-.16.14-.23.22a21.75,21.75,0,0,0-3.58,4.83,22.4,22.4,0,0,0-1.33,18.62A24.72,24.72,0,0,0,140,422a22.07,22.07,0,0,0,3.1,4.36l1.61-1.64,5.29-5.39,4-4.1,2.18-2.22,2.48-2.52,6.65-6.76,8.33-8.48A21.37,21.37,0,0,0,158.63,389.38Z"/><path class="cls-28" d="M174.29,395.82c-.21-.22-.44-.41-.66-.62l-8.33,8.48-6.65,6.76L156.17,413,154,415.18l-4,4.1-5.29,5.39-1.61,1.64c.15.16.28.33.44.49a1.37,1.37,0,0,0,.16.18c.27.29.57.53.86.8a22.34,22.34,0,0,0,2.93,2.27l.42.25A21.48,21.48,0,0,0,174.25,427l0,0a22.34,22.34,0,0,0,0-31.16Z"/><path class="cls-28" d="M147.92,429.57a23,23,0,0,0,1.81-2.18c-.46-.12-.93-.22-1.4-.3A22.9,22.9,0,0,0,147.92,429.57Z"/><path class="cls-29" d="M388.92,410.47c-1.2,2.71-7.1,2.66-13.16-.1s-10-7.18-8.79-9.88,7.1-2.66,13.16.1S390.13,407.77,388.92,410.47Z"/><path class="cls-30" d="M378.41,404.45l4.49-10.05s-2.1-2.19-7.47-1.84-7.55,2.45-7.55,2.45l3.94,7.68,3.32,1.51,2.81,1.28Z"/><path class="cls-29" d="M364.09,391.12a15.73,15.73,0,0,0-17.81,0c-3.65,2.67-8.44,14.76-8.44,14.76l30.56,8.63L380,406.41S368.64,394.21,364.09,391.12Z"/><path class="cls-31" d="M375,407.24a30.79,30.79,0,0,0-14.73-11c-10-3.64-17.26-2-21.87,4.93s-10.32,36.47-7.48,48.37c1,4.08,4.57,7.65,12.6,11S375,407.24,375,407.24Z"/><path class="cls-30" d="M378.41,404.45l4.49-10.05s3,.13,6.31,4.43,3.18,7.33,3.18,7.33l-8.32,2.11-3.32-1.51-2.8-1.28Z"/><path class="cls-32" d="M397.79,406.45a16,16,0,0,1,11.82,13.43c.43,4.54-5.38,16.16-5.38,16.16l-26.64-17.39-1.69-14.1S392.48,405.05,397.79,406.45Z"/><path class="cls-29" d="M378.58,408.87a30.49,30.49,0,0,1,17.95,3.83c9.36,5.18,12.88,11.74,10.82,19.79s-21.37,31.15-32,37.22c-3.39,1.94-7.69,2.08-15.49-1.78S378.58,408.87,378.58,408.87Z"/><path class="cls-33" d="M368,400.26c-.9,2,1.71,7.36,7.78,10.11l3.22-7.21c-3.61-1.64-4.26-1.56-6.66-1.59C370.69,401.55,368.33,399.45,368,400.26Z"/><path class="cls-34" d="M379,403.16l-3.22,7.21c6.06,2.76,11.37,1.09,12.26-.9.53-1.19-1.35.27-3.76-1.62C382.63,406.58,381.43,404.27,379,403.16Z"/><path class="cls-35" d="M400.22,385.54l.57-3.75c-14.7-5.83-21.19,5-25,20.49-.14,2,.76,2.6,1.43,2.87l.62.23C381.49,391.48,387.54,381.78,400.22,385.54Z"/><path class="cls-33" d="M382,404.9c2.78-11.29,6.75-18.94,17.48-14.68.24-1.56.48-3.12.71-4.68-12.68-3.76-18.73,5.94-22.38,19.84C380.42,406.3,381,405.79,382,404.9Z"/><path class="cls-36" d="M349.83,467.7l.46-1,26.36-59s-7.53-6.52-15-4.33-15.22,22.22-17.91,35.88-5.33,19.58-.29,23.42Z"/><path class="cls-37" d="M349.83,467.7l.46-1,26.36-59s9.84,1.37,13.13,8.45-6.43,26.22-14.79,37.29-11,17-17.21,15.73Z"/><polygon class="cls-38" points="321.04 364.05 322.78 359.13 321.19 344.39 319.16 344.61 320.99 363.97 321.04 364.05"/><polygon class="cls-39" points="319.16 344.61 316.74 344.86 318.34 359.7 320.99 363.97 319.16 344.61"/><path class="cls-40" d="M306.75,349.49l10.33,16.66c.62-.16,1.26-.29,1.92-.4.49-.08,1-.14,1.5-.2l.3,0,.33,0-.12-1.35,0-.16-2.65-4.27-7.8-12.59Z"/><path class="cls-41" d="M327.75,345.1l-5,14L321,364,321,364l0,.16.12,1.35h.08l.69,0c.52,0,1-.06,1.55-.06s1.24,0,1.85.05l6.66-18.8Z"/><path class="cls-42" d="M320.8,365.51l-.3,0c-.51.06-1,.12-1.5.2-.66.11-1.3.24-1.92.4-8.84,2.2-14.62,9.13-12.5,18.6l1.48,6.59c1.12,5,2.76,12.28,4.58,20.39,1.88,8.36,3.94,17.54,5.8,25.83s3.48,15.49,4.55,20.29c.17.73.45,1.68.81,2.74,1.79,5.19,5.71,13.16,9.33,12.82h.21L329.5,454l-2.79-29.48-5.17-54.73,0-.21v-.12l-.38-4Z"/><path class="cls-43" d="M325.3,365.43c-.61,0-1.23-.06-1.85-.05s-1,0-1.55.06l-.69,0h-.08l.38,4v.12l0,.21,5.17,54.73L329.5,454l1.84,19.41c4.32-.5,6.85-12.75,7-17.15.61-18.71,2.42-74.83,2.42-74.83C341.06,371.82,334.24,366.09,325.3,365.43Z"/><path class="cls-44" d="M318.25,380.11l-6.41.59c-.18,0-.3.36-.27.76l7.09-.66C318.62,380.4,318.44,380.09,318.25,380.11Z"/><path class="cls-45" d="M318.66,380.8l-7.09.66c0,.4.22.71.41.69l6.41-.59C318.58,381.55,318.7,381.21,318.66,380.8Z"/><path class="cls-44" d="M315.21,390.61l-5.43.5c-.15,0-.25.36-.21.76l6-.56C315.53,390.91,315.37,390.6,315.21,390.61Z"/><path class="cls-45" d="M315.57,391.31l-6,.56c0,.4.19.71.35.7l5.43-.5C315.51,392.05,315.6,391.72,315.57,391.31Z"/><path class="cls-44" d="M320.51,411l-5.11.47c-.15,0-.24.35-.2.75l5.65-.52C320.81,411.3,320.66,411,320.51,411Z"/><path class="cls-45" d="M320.85,411.7l-5.65.52c0,.41.19.72.34.71l5.11-.48C320.8,412.44,320.89,412.1,320.85,411.7Z"/><path class="cls-44" d="M333.41,400.19l-7.07.65c-.21,0-.34.36-.3.76l7.81-.72C333.82,400.48,333.62,400.17,333.41,400.19Z"/><path class="cls-45" d="M333.85,400.88l-7.81.72c0,.41.23.72.44.7l7.07-.66C333.76,401.63,333.89,401.28,333.85,400.88Z"/><path class="cls-44" d="M334.55,384.94l-4.74.44c-.14,0-.22.35-.18.75l5.24-.48C334.83,385.24,334.69,384.93,334.55,384.94Z"/><path class="cls-45" d="M334.87,385.65l-5.24.48c0,.4.18.72.32.7l4.74-.43C334.83,386.38,334.91,386.05,334.87,385.65Z"/><path class="cls-44" d="M330.82,375.7l-6,.55c-.17,0-.28.36-.24.76l6.66-.61C331.17,376,331,375.68,330.82,375.7Z"/><path class="cls-45" d="M331.21,376.4l-6.66.61c0,.4.21.72.38.7l6-.56C331.14,377.14,331.25,376.8,331.21,376.4Z"/><path class="cls-44" d="M325.07,430.75l-6.18.57c-.18,0-.29.34-.26.72l6.83-.63C325.42,431,325.25,430.73,325.07,430.75Z"/><path class="cls-45" d="M325.46,431.41l-6.83.63c0,.38.21.67.39.65l6.18-.57C325.38,432.1,325.5,431.79,325.46,431.41Z"/><path class="cls-44" d="M336,418.82l-6.18.57c-.18,0-.29.33-.26.71l6.83-.63C336.36,419.09,336.19,418.8,336,418.82Z"/><path class="cls-45" d="M336.4,419.47l-6.83.63c0,.38.21.67.39.66l6.18-.57C336.32,420.17,336.44,419.85,336.4,419.47Z"/><path class="cls-44" d="M335.49,439.2l-4.06.37c-.11,0-.18.29-.15.63l4.48-.41C335.73,439.45,335.61,439.19,335.49,439.2Z"/><path class="cls-45" d="M335.76,439.79l-4.48.41c0,.34.15.6.27.59l4.06-.37C335.72,440.4,335.79,440.12,335.76,439.79Z"/><path class="cls-44" d="M326.27,451.75l-2.82.26c-.08,0-.13.24-.1.52l3.11-.29C326.44,452,326.35,451.74,326.27,451.75Z"/><path class="cls-45" d="M326.46,452.24l-3.11.29c0,.28.11.5.19.49l2.82-.26C326.44,452.75,326.49,452.52,326.46,452.24Z"/><path class="cls-44" d="M334.76,457.37l-2.56.23c-.07,0-.11.22-.09.47l2.83-.26C334.92,457.56,334.84,457.36,334.76,457.37Z"/><path class="cls-45" d="M334.94,457.81l-2.83.26c0,.25.11.45.18.44l2.56-.23C334.92,458.27,335,458.06,334.94,457.81Z"/><path class="cls-44" d="M327.74,465l-1.82.16c-.05,0-.07.28,0,.62l2-.19C327.86,465.25,327.79,465,327.74,465Z"/><path class="cls-45" d="M327.89,465.58l-2,.19c0,.34.1.6.15.6l1.82-.17S327.92,465.92,327.89,465.58Z"/><path class="cls-46" d="M189.92,414.31c-2.51-3.09-4.12-5.09-4.12-5.09l-.62,1.17,7,8.6,1.94-1.05S192.43,417.39,189.92,414.31Z"/><path class="cls-47" d="M184.85,411a16.74,16.74,0,0,0,3.09,4.51,8.71,8.71,0,0,1,2.28,4.53l1.93-1.05-7-8.6Z"/><path class="cls-46" d="M191.64,418.36l-4.95,2.44a10.46,10.46,0,0,1-6.65.89H180a10.46,10.46,0,0,0-4.88.2l-.35.1a9.27,9.27,0,0,1,5.35.75c2.52,1.28,5.58,3.13,10.17-.55S191.64,418.36,191.64,418.36Z"/><path class="cls-46" d="M193.12,420.18s-2.16,1.41-6,.43a12.14,12.14,0,0,1-5.84-3.23l1.53.54a16.74,16.74,0,0,0,6.81.87A4,4,0,0,1,193.12,420.18Z"/><path class="cls-48" d="M192,418.05l3.36-4.41a10.73,10.73,0,0,0,2.18-6.4v-.06a10.74,10.74,0,0,1,1.16-4.79l.17-.33a9.55,9.55,0,0,0-.33,5.44c.74,2.75,1.94,6.14-2.55,9.95S192,418.05,192,418.05Z"/><path class="cls-48" d="M193.5,419.87s1.79-1.85,1.61-5.88a12.26,12.26,0,0,0-2-6.41l.23,1.61a17.34,17.34,0,0,1-.52,6.91A4.08,4.08,0,0,0,193.5,419.87Z"/><path class="cls-49" d="M220.86,454.4l-3.72,3.06c-10.11,8.35-25.57,6.16-34.53-4.89l-.29-.36c-6.84-8.44-6.89-21.51,1.6-26.83,2.27-1.42,8.62-5.92,8.62-5.92Z"/><path class="cls-50" d="M220.86,454.4l3.71-3.07c10.12-8.34,11.05-24.07,2.1-35.12l-.29-.35c-6.85-8.45-19.53-11.09-26.39-3.74-1.83,2-7.45,7.34-7.45,7.34Z"/><path class="cls-51" d="M182.94,430.31a9.69,9.69,0,0,0-1.59,8.77c2.28,7.57,9.07,10.26,11.81,7.43s-3-13.69-4.49-15.58C185.71,427.16,182.94,430.31,182.94,430.31Z"/><path class="cls-46" d="M307.42,415.88c1.5-3.7,2.47-6.07,2.47-6.07h-1.31l-4.19,10.27,1.83,1.22S305.92,419.57,307.42,415.88Z"/><path class="cls-47" d="M307.89,409.81a16.68,16.68,0,0,0-2.47,4.88,8.62,8.62,0,0,1-2.86,4.17l1.83,1.22,4.19-10.27Z"/><path class="cls-46" d="M304.7,419.33l-4.48-3.24a10.56,10.56,0,0,1-3.93-5.48l0-.06a10.68,10.68,0,0,0-2.5-4.24l-.25-.26a9.5,9.5,0,0,1,1.89,5.1c.08,2.85-.09,6.44,5.31,8.78S304.7,419.33,304.7,419.33Z"/><path class="cls-46" d="M303.81,421.51s-2.25-1.25-3.23-5.16a12.28,12.28,0,0,1,0-6.71l.25,1.61a17.26,17.26,0,0,0,2.48,6.46A4.06,4.06,0,0,1,303.81,421.51Z"/><path class="cls-48" d="M305.15,419.52l5.44.88a10.42,10.42,0,0,0,6.62-1.1l.05,0A10.58,10.58,0,0,1,322,418h.37a9.29,9.29,0,0,0-4.9,2.28c-2,2-4.44,4.64-9.9,2.46S305.15,419.52,305.15,419.52Z"/><path class="cls-48" d="M304.26,421.69s2.47.71,5.9-1.36a12.17,12.17,0,0,0,4.65-4.8l-1.3,1a16.93,16.93,0,0,1-6.27,2.82A4,4,0,0,0,304.26,421.69Z"/><path class="cls-49" d="M287.13,462.38l-4.43-1.84c-12.09-5-17.52-19.79-12.13-33l.17-.43c4.12-10.08,15.5-16.33,24.17-11.31,2.32,1.34,9.25,4.84,9.25,4.84Z"/><path class="cls-50" d="M287.13,462.38l4.44,1.84c12.08,5,26.25-1.61,31.63-14.81l.17-.43c4.12-10.08.4-22.6-9.26-25.2-2.59-.7-9.95-3.13-9.95-3.13Z"/><path class="cls-51" d="M290.15,417.28a9.47,9.47,0,0,0-8.41,2.75c-5.52,5.62-4.65,12.92-.88,14s10.52-9.16,11.47-11.38C294.2,418.24,290.15,417.28,290.15,417.28Z"/><path d="M264,252.57a13.85,13.85,0,0,1-12.66.05L53.56,152.68a14.18,14.18,0,0,1-6.25-19,14,14,0,0,1,18.8-6.31l197.73,99.94a14.19,14.19,0,0,1,6.25,19A14,14,0,0,1,264,252.57Z"/><polygon class="cls-52" points="461.06 286.34 288.3 286.34 242.56 270.23 269.42 210.91 461.06 286.34"/><path class="cls-53" d="M288.24,240.43a32.43,32.43,0,1,1-32.43-32.72A32.59,32.59,0,0,1,288.24,240.43Z"/><path class="cls-54" d="M55.77,286.51l20.49,182.1a32.17,32.17,0,0,0,32,32.31H399.57a32.17,32.17,0,0,0,32-32.31L455,286.51Zm65.84,165.32L106.54,319.77h33l15.06,132.06Zm56.51,0-7.53-132.06h32.95l7.54,132.06Zm93.23,0h-33V319.77h33Zm56.5,0h-33l7.53-132.06h33Zm56.5,0h-33l15.06-132.06h33Z"/><polygon class="cls-55" points="455.25 286.34 453.07 301.72 56.01 286.34 455.25 286.34"/><text class="cls-56" transform="translate(237.8 198.31) scale(0.91 1)">GS</text><text class="cls-57" transform="translate(233.8 196.31) scale(0.91 1)">GS</text></g></g></svg>